<svg xmlns="http://www.w3.org/2000/svg" viewBox="0 0 5284.81 4407.8"><defs><style>.cls-1,.cls-13,.cls-2{fill:#fff;}.cls-1,.cls-10,.cls-12{fill-opacity:0;}.cls-1,.cls-10,.cls-11,.cls-12,.cls-13,.cls-14,.cls-2,.cls-3,.cls-4,.cls-5,.cls-6,.cls-7,.cls-8,.cls-9{fill-rule:evenodd;}.cls-10,.cls-12,.cls-13,.cls-14,.cls-2,.cls-3,.cls-4,.cls-5,.cls-6,.cls-7,.cls-8,.cls-9{stroke:#091133;stroke-linecap:round;stroke-linejoin:round;}.cls-10,.cls-2,.cls-3,.cls-4,.cls-5,.cls-6,.cls-7,.cls-8,.cls-9{stroke-width:20px;}.cls-11,.cls-3{fill:#cef1ff;}.cls-4{fill:#c6d4ff;}.cls-5{fill:#18cfdb;}.cls-6{fill:#b775d6;}.cls-7{fill:#4b56a5;}.cls-8{fill:#ff4c13;}.cls-9{fill:#13c6ff;}.cls-10,.cls-12,.cls-14{fill:#091133;}.cls-12,.cls-13{stroke-width:15px;}.cls-14{stroke-width:10px;}</style></defs><g id="Layer_2" data-name="Layer 2"><g id="Layer_1-2" data-name="Layer 1"><path class="cls-1" d="M2472.72,2154s9.36-42.27,14.36-43.35c4.73-1,36.38,32,36.38,32Z"/><path class="cls-2" d="M43.42,10H4366.79c18.45,0,33.42,15.39,33.42,34.37V2382.48c0,19-15,34.38-33.42,34.38H43.42C25,2416.86,10,2401.47,10,2382.48V44.37C10,25.39,25,10,43.42,10Z"/><path class="cls-3" d="M115.33,84.29H4287.92a32.27,32.27,0,0,1,32.26,32.26V2310.74a32.26,32.26,0,0,1-32.26,32.26H115.33a32.26,32.26,0,0,1-32.26-32.26V116.55A32.27,32.27,0,0,1,115.33,84.29Z"/><path class="cls-1" d="M1675.71,1469.72s12.19-55,18.69-56.41c6.16-1.34,47.34,41.6,47.34,41.6Z"/><path class="cls-4" d="M1320.48,1299c0-45.14,39.08-81.73,87.29-81.73S1495,1253.86,1495,1299s-39.07,81.72-87.27,81.72S1320.48,1344.13,1320.48,1299Z"/><path class="cls-5" d="M1708.69,492.05c-24.44-37.95-11.4-89.87,29.13-116s93.19-16.49,117.63,21.46,11.39,89.86-29.13,116S1733.13,530,1708.69,492.05Z"/><path class="cls-6" d="M538.19,1154.39c0-45.14,39.08-81.73,87.28-81.73s87.28,36.59,87.28,81.73-39.08,81.72-87.28,81.72S538.19,1199.52,538.19,1154.39Z"/><path class="cls-7" d="M1609.48,2020.56c-30.87-63.86-.61-142.36,67.6-175.33s148.51-7.93,179.38,55.94.61,142.37-67.59,175.33S1640.36,2084.43,1609.48,2020.56Z"/><path class="cls-8" d="M835.09,510.06C844.9,399,949,317.53,1067.52,328c98.43,8.7,175.91,78.06,193.76,164.89a189.52,189.52,0,0,1,3.15,55.09,191.55,191.55,0,0,1-41.51,103C1180,704.79,1109.06,736.84,1032,730,913.44,719.56,825.29,621.07,835.09,510.06Z"/><path class="cls-5" d="M2551.4,711.56h276.5c30.66,0,55.51,18.77,55.51,41.93h0c0,23.15-24.85,41.92-55.51,41.92H2551.4c-30.65,0-55.5-18.77-55.5-41.92h0C2495.9,730.33,2520.75,711.56,2551.4,711.56Z"/><path class="cls-9" d="M2853,966.08h276.5c30.66,0,55.51,17,55.51,38h0c0,21-24.85,38-55.51,38H2853c-30.65,0-55.5-17-55.5-38h0C2797.52,983.09,2822.37,966.08,2853,966.08Z"/><path class="cls-4" d="M2547.66,1267.51h276.49c30.66,0,55.51,17.36,55.51,38.79h0c0,21.43-24.85,38.8-55.51,38.8H2547.66c-30.66,0-55.51-17.37-55.51-38.8h0C2492.15,1284.87,2517,1267.51,2547.66,1267.51Z"/><path class="cls-7" d="M2581.06,1644.61h276.5c30.66,0,55.51,17.36,55.51,38.78h0c0,21.43-24.85,38.8-55.51,38.8h-276.5c-30.66,0-55.5-17.37-55.5-38.8h0C2525.56,1662,2550.4,1644.61,2581.06,1644.61Z"/><path class="cls-2" d="M2728.9,1407.39h276.51c30.65,0,55.5,17,55.5,38h0c0,21-24.85,38-55.5,38H2728.9c-30.65,0-55.5-17-55.5-38h0C2673.4,1424.39,2698.25,1407.39,2728.9,1407.39Z"/><path class="cls-2" d="M3302.59,964.53H3624.2c35.65,0,64.57,17.12,64.57,38.24h0c0,21.12-28.92,38.23-64.57,38.23H3302.59c-35.66,0-64.56-17.11-64.56-38.23h0C3238,981.65,3266.93,964.53,3302.59,964.53Z"/><path class="cls-8" d="M2696.88,831.91H3920.64c30.11,0,54.51,19.06,54.51,42.58h0c0,23.51-24.4,42.57-54.51,42.57H2696.88c-30.12,0-54.52-19.06-54.52-42.57h0C2642.36,851,2666.76,831.91,2696.88,831.91Z"/><path class="cls-6" d="M2684.51,1112.44H3770.25c26.71,0,48.35,18.57,48.35,41.46h0c0,22.89-21.64,41.45-48.35,41.45H2684.51c-26.71,0-48.37-18.56-48.37-41.45h0C2636.14,1131,2657.8,1112.44,2684.51,1112.44Z"/><path class="cls-9" d="M2876.49,1524H3885.3c24.82,0,44.93,18.56,44.93,41.46h0c0,22.9-20.11,41.45-44.93,41.45H2876.49c-24.82,0-44.93-18.55-44.93-41.45h0C2831.56,1542.57,2851.67,1524,2876.49,1524Z"/><path class="cls-3" d="M2491.81,1305.52l-997.72,11.07"/><path class="cls-10" d="M2523.75,1685.89l-479.24,1.51-192.4,203.11"/><path class="cls-10" d="M2641.43,876.1,1308.54,885,1154,707"/><path class="cls-10" d="M2494.75,753.81,2090,757.69s-253.59-256.05-245.52-246.51"/><path class="cls-10" d="M2636,1156.63l-1921.43-8"/><path class="cls-10" d="M1694.19,442.05l-437.35,26.16"/><path class="cls-10" d="M920.62,696.06,666.73,1077.61"/><path class="cls-10" d="M1621.66,1884.73c22.45,13.74-957.46-664.87-947.34-654.65"/><path class="cls-10" d="M1746.39,528.81c13.15-32.24-291.44,700-291.44,700"/><path class="cls-10" d="M1450.06,1374.85c50.36,106.15,207.13,437.5,219.79,458.11"/><path class="cls-10" d="M707.51,1102.91,1707.59,504.83"/><path class="cls-10" d="M707.64,1198.91c-23.87-3.86,573,83.77,607.93,89.55"/><path class="cls-10" d="M1754.43,1825.27s40.81-1256.38,42.74-1295.75"/><path class="cls-11" d="M5284.81,4176.15c1.25-135.36-560-251.25-1253.6-258.88s-1256.88,95.91-1258.13,231.27,560,251.24,1253.6,258.87S5283.56,4311.5,5284.81,4176.15Z"/><path class="cls-9" d="M5081.85,2862.33c26.59,33.54,121.32,165.55,98.15,76.43-13.16-50.62-110-285.81-224.49-400.29-283.09-283-683.34-328.32-683.34-328.32s-5.79-15.45,32.87-83.33c20.95-36.78-190.13,83.33-190.13,83.33s-104.25-87.45-131.45-105.64c-25-16.75-123.29-71.38-116.18-52.8,18,47,108.54,148.95,84.49,159.6-32.23,14.3-225.05,1.34-415.77,98.78-337.59,172.47-337.5,502.43-352.4,579.91-12.58,65.38,72.59-2.68,72.59-2.68s9.24,126.19-52.91,181.5c-68.18,60.69-297.81-260.29-376.61-305.32s-127.2-.62-103.54,72.7c19.7,61,296.83,503.05,467.49,509.22s273-123.36,290-116c19.83,8.57-32.34,137.7-38.92,365.57-7,240.45,176,355.71,183.05,423.3,7.07,67.09-67.18,77.71-19.19,138.18,54.36,68.46,289.77,33.55,313.93,11.78,15.07-13.56-11.62-91.14,25.35-88.06,32.84,2.76,191.43-1.51,229.18-1.31,48.31.27,12.73,49.63,19.6,80.12,8.06,35.82,287.56,61.09,345.66-1.49s-55.12-89.4-17.88-146c74.37-113,148.11-261.8,153.37-402.75s-65.43-375.7-9-376.77c56.69-1.08,72.53,145.64,99,282.46,20.92,108.14-50.11,275.37-35.3,418.41,4.93,47.59,95.89,52.42,134.92,13.6s163.22-277.1,187.73-530.32S5071,2848.68,5081.85,2862.33Z"/><path class="cls-2" d="M4535.43,2714.24c5.83-269.9-161.6-319-384.9-309.06-28.52,1.28-19.81,10,10.8,51.18,35.87,48.26-115.72-34.06-140.26-34.52-19.38-.36-102.26,84.39-88.59,50.81,16.51-40.57,38.36-78.75,7.58-75.38-168.6,18.37-349.79,22-340.26,312.8,10.16,310.09,173.49,313.11,472.87,311.33C4381.65,3019.55,4528.71,3025.63,4535.43,2714.24Z"/><path class="cls-12" d="M4290.63,2814.06s-148.84,29.84-295.26,23.39c-157-6.92-285.67-41.68-285.67-41.68"/><path class="cls-13" d="M3802.66,2809.29s44.34-62.43,51.49-60.87c6.78,1.49,21.53,76.21,21.53,76.21Z"/><path class="cls-13" d="M4120.46,2827.52s23.71-72.82,31-73.46c6.91-.6,43.28,66.33,43.28,66.33Z"/><path class="cls-14" d="M4285.82,2590.52a19.1,19.1,0,1,0-19.1,19.05A19.08,19.08,0,0,0,4285.82,2590.52Z"/><path class="cls-14" d="M3753.49,2585.39a19.11,19.11,0,1,0-19.1,19A19.07,19.07,0,0,0,3753.49,2585.39Z"/><path class="cls-14" d="M4036.45,2653.78c-.08-11.86-16.21-15.36-36.19-15.36s-35.6,3.28-35.6,15.32,15.61,15.42,35.6,15.42S4036.51,2665.66,4036.45,2653.78Z"/><path class="cls-9" d="M3456.48,2390.05s-133.09-155.76-213.27-53.72c-98.13,124.89,75.2,202.14,75.2,202.14"/><path class="cls-9" d="M4706,2389.37s133.09-155.75,213.28-53.71c98.12,124.9-75.2,202.16-75.2,202.16"/><path class="cls-2" d="M3415.36,2427.83l-57.42,69.45s-111.54-56.52-68.12-111.23C3334.5,2329.73,3415.36,2427.83,3415.36,2427.83Z"/><path class="cls-2" d="M4747.14,2427.17l57.42,69.45s111.54-56.51,68.12-111.24C4828,2329.08,4747.14,2427.17,4747.14,2427.17Z"/><path class="cls-2" d="M4474.6,2277.61s180.28-411.22,226.47-379.93c129.52,87.74-64.07,451.45-64.07,451.45s-56.9,1.31-97.5-16.57S4474.6,2277.61,4474.6,2277.61Z"/><path class="cls-2" d="M3677.41,2285.06s-180.28-411.22-226.47-379.93c-129.52,87.74,64.07,451.45,64.07,451.45s50.51,4.26,91.11-13.62S3677.41,2285.06,3677.41,2285.06Z"/><path class="cls-9" d="M3499.65,3137.85s-7.56,53.25-10.85,76.64-10,73.7-10,73.7"/><path class="cls-2" d="M4407.43,3287c63.56,69.76,131.44,332.39,61.13,435.14s-195.85,220.44-488.12,188.2c-293.46-32.37-339.2-161.07-373.37-235.46-17.46-38-40.14-295.56,81.06-418,116.14-117.29,374.79-100.45,429.55-97.07C4229.57,3166.83,4343.85,3217.27,4407.43,3287Z"/></g></g></svg>