<svg xmlns="http://www.w3.org/2000/svg" viewBox="0 0 678.29 161.95"><defs><style>.cls-1,.cls-2,.cls-3{fill:#091133;}.cls-1,.cls-2{fill-rule:evenodd;}.cls-2{stroke:#091133;stroke-linecap:round;stroke-linejoin:round;stroke-width:3px;}</style></defs><g id="Layer_2" data-name="Layer 2"><g id="Layer_1-2" data-name="Layer 1"><g id="Layer_1-3" data-name="Layer 1"><path class="cls-1" d="M85,0A85.05,85.05,0,0,0,9.18,123.49c1.69-9.2,5.63-26.33,9.28-33.9,3.08-6.38,6.06-12,8.89-17.09,1.91-3.39-7.9,4.58-6.14,1.75,11-17.71,30.25-35.89,30.16-37.59-.19-3.38-6.22-7.74-3.14-18.52,2.45-8.57,7.87,14.49,13.46,16.27.66.21,11,.11,12.56.11,1.15,0,.83-1.74-1.64-4.68-2.6-3.11,9.94,4.57,10.59,4.57.25,0,5.41-4.46,8.88-6.87,4-2.74,6.14-3.32,4-.49-5.29,6.88-3.71,7.36-3,7.36l2.71,0s11.43,0,11.9-.14C115.5,32,120.7,9,122.1,20.08c1.52,12-2.73,13.65-2.79,16.58-.08,3.44,26.86,32.62,33.85,49.19.18.43-.74,0-1.31-.46s-7-6-6.31-4.59c1.35,2.62,4.18,6.74,5.58,9.67,4.35,9.14,8.67,23.64,10.18,32.15A85,85,0,0,0,85,0ZM40.72,131.35c-5.28,0-6.46,12.94-6.66,21.74a83.37,83.37,0,0,0,7.18,4.83,70.48,70.48,0,0,1,.41-13.43C43.28,131.65,44.44,131.35,40.72,131.35Zm92.26,0c-4,0-2.54,0-1.85,15.54a48.76,48.76,0,0,1-.48,9.89c2.36-1.5,4.64-3.12,6.83-4.84C137.78,143.53,137.47,131.35,133,131.35Z"/><path class="cls-2" d="M63.7,76.44l42.64.06"/><path class="cls-1" d="M71.19,75.75s2.75-5.86,3.41-5.86S78,75.7,78,75.7Z"/><path class="cls-1" d="M91.65,75.75s2.74-5.86,3.41-5.86,3.39,5.81,3.39,5.81Z"/></g><path class="cls-3" d="M215.07,90.79H196.44V68.14h18.63V52a73.07,73.07,0,0,1,1.32-14.19A28.79,28.79,0,0,1,221.47,26a24.86,24.86,0,0,1,10.82-8q7.05-2.91,18.53-2.91,4.34,0,8.47.37a56.63,56.63,0,0,1,8.09,1.32l-1.32,23.86a32.3,32.3,0,0,0-4.52-1.41,21.73,21.73,0,0,0-4.72-.47q-6.78,0-10.18,2.91t-3.4,11.94V68.14h20.89V90.79H243.24v68.84H215.07Zm60.27-73.44h28.17V159.63H275.34Z"/><path class="cls-3" d="M404.38,159.63h-27V147.28h-.44a31.85,31.85,0,0,1-3.85,5.27,25.47,25.47,0,0,1-5.74,4.7,33.33,33.33,0,0,1-7.71,3.38,32,32,0,0,1-9.4,1.32q-10.73,0-17.4-3.3a24.89,24.89,0,0,1-10.34-9.13,35.69,35.69,0,0,1-4.89-13.75,112,112,0,0,1-1.22-17.15V68.14h28.17V113q0,4,.28,8.2a26,26,0,0,0,1.7,7.83,13.58,13.58,0,0,0,4.33,5.84q2.92,2.26,8.39,2.26a17.48,17.48,0,0,0,8.86-2,13.54,13.54,0,0,0,5.18-5.28,21.44,21.44,0,0,0,2.35-7.44,63.56,63.56,0,0,0,.57-8.67V68.14h28.17Z"/><path class="cls-3" d="M416.88,68.14h28.17V82.89h.37q4.51-8.46,10.73-12.69T471.77,66q2.44,0,4.89.18a27.32,27.32,0,0,1,4.52.69V92.67a44.59,44.59,0,0,0-5.93-1.41,38.76,38.76,0,0,0-6.12-.47q-8.08,0-12.79,2.26a17.09,17.09,0,0,0-7.25,6.3A24,24,0,0,0,445.8,109a94.58,94.58,0,0,0-.75,12.41v38.18H416.88Z"/><path class="cls-3" d="M572.57,143.85a45.1,45.1,0,0,1-17.13,13.39A51.24,51.24,0,0,1,534,162a57.52,57.52,0,0,1-19.85-3.39A47.55,47.55,0,0,1,498,148.87a45.44,45.44,0,0,1-10.8-15.15A48,48,0,0,1,483.23,114a48,48,0,0,1,3.95-19.76A45.54,45.54,0,0,1,498,79a47.84,47.84,0,0,1,16.2-9.69A57.68,57.68,0,0,1,534.09,66a45.22,45.22,0,0,1,17.8,3.39A36.9,36.9,0,0,1,565.45,79,44,44,0,0,1,574,94.17a60.86,60.86,0,0,1,3,19.74v8.83H511.4a22.37,22.37,0,0,0,7.34,12.91,20.74,20.74,0,0,0,13.93,4.81,21.2,21.2,0,0,0,11.76-3.11,31.45,31.45,0,0,0,8.38-8Zm-23.7-40.28a16.29,16.29,0,0,0-4.73-12.21,16.9,16.9,0,0,0-12.68-5.07,21.35,21.35,0,0,0-8.33,1.51A20.93,20.93,0,0,0,517,91.65a16.81,16.81,0,0,0-4,5.44,17.87,17.87,0,0,0-1.61,6.48Z"/><path class="cls-3" d="M673.82,143.85a45.1,45.1,0,0,1-17.13,13.39A51.24,51.24,0,0,1,635.24,162a57.52,57.52,0,0,1-19.85-3.39,47.55,47.55,0,0,1-16.17-9.69,45.44,45.44,0,0,1-10.8-15.15A48,48,0,0,1,584.48,114a48,48,0,0,1,3.95-19.76A45.54,45.54,0,0,1,599.27,79a47.89,47.89,0,0,1,16.19-9.69A57.78,57.78,0,0,1,635.34,66a45.22,45.22,0,0,1,17.8,3.39A36.9,36.9,0,0,1,666.7,79a44,44,0,0,1,8.57,15.14,60.86,60.86,0,0,1,3,19.74v8.83H612.65A22.37,22.37,0,0,0,620,135.65a20.74,20.74,0,0,0,13.93,4.81,21.2,21.2,0,0,0,11.76-3.11,31.45,31.45,0,0,0,8.38-8Zm-23.7-40.28a16.33,16.33,0,0,0-4.73-12.21,16.9,16.9,0,0,0-12.68-5.07,21.35,21.35,0,0,0-8.33,1.51,20.8,20.8,0,0,0-6.15,3.85,16.81,16.81,0,0,0-4,5.44,17.87,17.87,0,0,0-1.61,6.48Z"/></g></g></svg>