<svg xmlns="http://www.w3.org/2000/svg" xmlns:xlink="http://www.w3.org/1999/xlink" viewBox="0 0 2787.41 2311.94"><defs><style>.cls-1{fill:none;}.cls-2{fill:#cef1ff;}.cls-18,.cls-19,.cls-2,.cls-26,.cls-27,.cls-3,.cls-4,.cls-5,.cls-6,.cls-7,.cls-8,.cls-9{fill-rule:evenodd;}.cls-3{fill:#13c6ff;}.cls-26,.cls-27,.cls-3,.cls-4,.cls-5,.cls-6,.cls-7{stroke:#091133;}.cls-26,.cls-27,.cls-3,.cls-4,.cls-5,.cls-6,.cls-7,.cls-8,.cls-9{stroke-linecap:round;stroke-linejoin:round;}.cls-3,.cls-4,.cls-6,.cls-7{stroke-width:20px;}.cls-27,.cls-4,.cls-9{fill:#fff;}.cls-26,.cls-5,.cls-6{fill:#091133;}.cls-5{stroke-width:10px;}.cls-7{fill:#c7c7c7;}.cls-8{fill:#eeefef;}.cls-8,.cls-9{stroke:#fff;stroke-width:19.78px;}.cls-10{fill:#61dafb;}.cls-11{isolation:isolate;}.cls-12{fill:#b3b3b3;}.cls-13{fill:#af2b2d;}.cls-14{fill:#df2e31;}.cls-15{fill:#f2f2f2;}.cls-16{fill:#e535ab;}.cls-17,.cls-19{fill:#689f63;}.cls-18{fill:#333;}.cls-20{clip-path:url(#clip-path);}.cls-21{fill:url(#linear-gradient);}.cls-22{clip-path:url(#clip-path-2);}.cls-23{fill:url(#linear-gradient-2);}.cls-24{clip-path:url(#clip-path-3);}.cls-25{fill:url(#linear-gradient-3);}.cls-26{fill-opacity:0;}.cls-26,.cls-27{stroke-width:15px;}</style><clipPath id="clip-path"><path class="cls-1" d="M189.61,1354.5l-49.7,28.69a6,6,0,0,0-3,5.2v57.42a6,6,0,0,0,3,5.19l49.71,28.71a6,6,0,0,0,6,0l49.7-28.71a6,6,0,0,0,3-5.19v-57.42a6,6,0,0,0-3-5.2l-49.69-28.69a6.06,6.06,0,0,0-6,0"/></clipPath><linearGradient id="linear-gradient" x1="6888.89" y1="1645.04" x2="6890.3" y2="1645.04" gradientTransform="matrix(-50.75, 103.54, 103.54, 50.75, 179540.61, -795394.54)" gradientUnits="userSpaceOnUse"><stop offset="0.3" stop-color="#3e863d"/><stop offset="0.5" stop-color="#55934f"/><stop offset="0.8" stop-color="#5aad45"/></linearGradient><clipPath id="clip-path-2"><path class="cls-1" d="M138.14,1449.45a5.88,5.88,0,0,0,1.77,1.55l42.63,24.63,7.11,4.08a6,6,0,0,0,3.46.79,6.12,6.12,0,0,0,1.18-.22l52.42-96a5.86,5.86,0,0,0-1.4-1.11l-32.54-18.79-17.21-9.9a5.81,5.81,0,0,0-1.55-.63Z"/></clipPath><linearGradient id="linear-gradient-2" x1="6824" y1="1716.33" x2="6824.92" y2="1716.33" gradientTransform="matrix(142.41, -105.22, -105.22, -142.41, -791064.61, 963920.14)" gradientUnits="userSpaceOnUse"><stop offset="0.57" stop-color="#3e863d"/><stop offset="0.72" stop-color="#619857"/><stop offset="1" stop-color="#76ac64"/></linearGradient><clipPath id="clip-path-3"><path class="cls-1" d="M192,1353.74a6.18,6.18,0,0,0-2.41.76l-49.56,28.61,53.45,97.34a5.88,5.88,0,0,0,2.13-.74l49.7-28.71a6,6,0,0,0,2.91-4.1l-54.48-93.07a6.31,6.31,0,0,0-1.22-.12,4.19,4.19,0,0,0-.5,0"/></clipPath><linearGradient id="linear-gradient-3" x1="6804.94" y1="1691.19" x2="6805.77" y2="1691.19" gradientTransform="matrix(129.89, 0, 0, -129.89, -883747.11, 221083.83)" gradientUnits="userSpaceOnUse"><stop offset="0.16" stop-color="#6bbf47"/><stop offset="0.38" stop-color="#79b461"/><stop offset="0.47" stop-color="#75ac64"/><stop offset="0.7" stop-color="#659e5a"/><stop offset="0.9" stop-color="#3e863d"/></linearGradient></defs><g id="Layer_2" data-name="Layer 2"><g id="Layer_1-2" data-name="Layer 1"><path class="cls-2" d="M644.93,2148.9c0-90.05,361-163.05,806.34-163.05s806.34,73,806.34,163.05-361,163-806.34,163S644.93,2239,644.93,2148.9Z"/><path class="cls-3" d="M1064.87,1709.79c-2,229,166.69,295.57,145.67,315.31-111,104.25,155.77,69.8,174.11,60.88,22.7-11.05-1.53-55.38-1.53-86.62,0-7.28,181.08-11.32,181.08-1.84,0,34.78-15.68,73.93-3.94,88.21,16.79,20.43,264.75,42.62,177-70.39-22.53-29,119.72-146.12,144.72-300.12C1894.63,1637.36,1065.61,1624.51,1064.87,1709.79Z"/><path class="cls-3" d="M905.17,1663c-145-222-13.17-520.17-25.16-505-17.85,22.5-89.35,98-73.8,38.17,8.83-34,107.62-170,184.49-246.84,190-189.92,339.9-177.4,339.9-177.4s3.89-10.37-22.06-55.93c-14.06-24.68,127.61,55.93,127.61,55.93s70-58.69,88.22-70.9c16.81-11.24,82.75-47.91,78-35.44-12.07,31.57-72.86,100-56.72,107.12,21.63,9.6,166.85-23.55,279,66.3,164.79,132,296,395.49,306,447.49,8.44,43.89-66.16-35.62-66.16-35.62S2107.17,1398,2025.17,1592c-42.06,99.51-29.06,50.18-75.13,55.58-34.46,4-69.79,117.53-104,163-47.22,62.76-233.73,53.4-375.08,52.85-10.64,0-21,.25-31.1-.23-135.65-6.42-372-25-375-93.4C1052.71,1498.09,925.18,1693.64,905.17,1663Z"/><path class="cls-4" d="M1153.91,1110.24c-3.9-181.15,108.46-214.13,258.34-207.43,19.13.86,13.29,6.71-7.26,34.35-24.07,32.39,77.67-22.86,94.15-23.16,13-.25,68.62,56.63,59.45,34.09-11.08-27.23-25.74-52.85-5.09-50.59,113.16,12.33,234.77,14.76,228.37,209.94-6.82,208.12-116.43,210.15-317.37,209C1257.12,1315.15,1158.42,1319.23,1153.91,1110.24Z"/><path class="cls-5" d="M1275.81,1108.21a12.82,12.82,0,1,1,12.82,12.79A12.81,12.81,0,0,1,1275.81,1108.21Z"/><path class="cls-5" d="M1633.09,1104.77a12.83,12.83,0,1,1,12.82,12.79A12.81,12.81,0,0,1,1633.09,1104.77Z"/><path class="cls-5" d="M1443.18,1150.67c0-8,10.88-10.31,24.29-10.31s23.89,2.2,23.89,10.28-10.48,10.35-23.89,10.35S1443.14,1158.64,1443.18,1150.67Z"/><path class="cls-3" d="M1845,877.38s89.33-104.54,143.14-36C2054,925.15,1937.65,977,1937.65,977"/><path class="cls-3" d="M1062.33,899.84S973,795.3,919.19,863.79c-65.87,83.82,50.46,135.67,50.46,135.67"/><path class="cls-4" d="M1872.58,902.74l38.55,46.62s74.85-37.94,45.72-74.66C1926.85,836.9,1872.58,902.74,1872.58,902.74Z"/><path class="cls-4" d="M1034.73,925.2l-38.55,46.61s-74.86-37.93-45.72-74.65C980.45,859.36,1034.73,925.2,1034.73,925.2Z"/><path class="cls-4" d="M1229.82,810.74s-121-276-152-255c-86.93,58.88,43,303,43,303s38.2.88,65.45-11.12S1229.82,810.74,1229.82,810.74Z"/><path class="cls-4" d="M1686.53,799.75s121-276,152-255c86.92,58.88-43,303-43,303s-33.91,2.85-61.16-9.15S1686.53,799.75,1686.53,799.75Z"/><path class="cls-6" d="M934.57,1958.92v230.25H851.74V1958.92l82.83-166.09H2016.65L2094,1958.92v230.25h-77.31V1958.92"/><path class="cls-3" d="M836.81,1410c.15,46.83,2.42,165,82.51,277.06,67.44,94.33,384.52,76.53,384.52,76.53s-7.07-102.07-7.07-128.72-140.36-24.15-226.51-93.07"/><path class="cls-3" d="M2074.92,1316.53c-.61,46.82-3,209.07-79.25,340.41s-408.94,110.83-408.94,110.83,6.62-132.13,9.34-142.35,217.3-36.18,270.26-89.52"/><g id="Layer_1-3" data-name="Layer 1"><path class="cls-7" d="M1139.1,1438h659.84a24.94,24.94,0,0,1,25.16,24.7v371.49a24.94,24.94,0,0,1-25.16,24.71H1139.1a24.93,24.93,0,0,1-25.15-24.71V1462.69A24.93,24.93,0,0,1,1139.1,1438Z"/><path class="cls-8" d="M1649.11,1486.06l99.29,89.42"/><path class="cls-8" d="M1700.09,1482.94l47.18,41.35"/><path class="cls-9" d="M1432.9,1653.12a35,35,0,1,1,35,34.86A34.91,34.91,0,0,1,1432.9,1653.12Z"/></g><path class="cls-10" d="M2787.41,1439.24c0-26.75-33.59-52.25-85.21-68.42,11.82-52.86,6.84-94.53-16.79-108.21-5.6-3.11-11.82-4.36-18.66-4.36v18.66a20.7,20.7,0,0,1,9.33,1.87c11.19,6.22,16.17,31.09,12.44,62.81-.62,8.09-2.49,16.17-4.36,24.26-16.17-3.73-34.2-6.84-52.86-9.33a488.9,488.9,0,0,0-34.21-41.67c26.75-24.88,52.25-39.18,69.66-39.18V1257h0c-23,0-52.86,16.17-82.72,44.16-30.47-28-59.7-44.16-82.71-44.16v18.66c17.41,0,42.91,13.68,69.65,38.56a395.16,395.16,0,0,0-34.2,41.67,332.19,332.19,0,0,0-52.87,9.33c-1.86-8.09-3.11-16.17-4.35-24.26-3.73-31.72.62-56,11.82-62.81a20.64,20.64,0,0,1,9.33-1.87v-18.66h0c-6.85,0-13.06,1.25-18.66,4.36-23,13.68-28.61,55.35-16.79,107.59-51.62,16.17-85.21,41.67-85.21,68.41s33.59,52.24,85.21,68.41c-11.82,52.87-6.85,94.54,16.79,108.22,5.6,3.11,11.81,4.35,18.66,4.35,23,0,52.86-16.17,82.71-44.15,30.48,28,59.71,44.15,82.72,44.15,6.84,0,13.06-1.24,18.66-4.35,23-13.68,28.61-55.35,16.79-107.59C2753.82,1492.1,2787.41,1466.6,2787.41,1439.24Zm-107.6-55.36c-3.11,10.58-6.84,21.77-11.19,33-3.11-6.84-6.84-13.06-10.58-19.91s-8.08-13.06-11.81-19.28C2657.42,1379.53,2668.62,1381.4,2679.81,1383.88Zm-37.94,88.32c-6.22,11.19-13.06,21.77-19.9,31.72q-18.66,1.86-37.31,1.86t-37.32-1.86c-6.84-10-13.68-20.53-19.9-31.72-6.22-10.57-11.82-21.77-17.42-33a334.67,334.67,0,0,1,17.42-33c6.22-11.19,13.06-21.76,19.9-31.71a373.24,373.24,0,0,1,74.63,0c6.84,10,13.68,20.52,19.9,31.71,6.22,10.58,11.82,21.77,17.42,33C2653.69,1450.43,2648.09,1461.63,2641.87,1472.2Zm26.75-10.57c4.35,11.19,8.08,22.38,11.19,33-10.57,2.49-22.39,5-34.2,6.84a210.24,210.24,0,0,0,11.81-19.9C2661.15,1475.31,2664.89,1468.47,2668.62,1461.63ZM2584,1549.94c-7.46-8.09-15.54-16.79-23-26.74,7.47.62,14.93.62,23,.62s15.55,0,23-.62C2599.58,1533.15,2592.12,1542.48,2584,1549.94Zm-61.57-48.51c-11.81-1.87-23-3.73-34.2-6.84,3.11-10.58,6.84-21.77,11.19-33,3.11,6.84,6.84,13.06,10.57,19.9S2518.73,1495.21,2522.46,1501.43Zm61.57-172.9c7.47,8.09,15.55,16.79,23,26.75-7.47-.63-14.93-.63-23-.63s-15.54,0-23,.63C2568.49,1346,2576.57,1336.62,2584,1328.53Zm-61.57,49.13a210.41,210.41,0,0,0-11.81,19.91c-3.74,6.84-7.47,13.06-10.58,19.9-4.35-11.2-8.08-22.39-11.19-33C2499.45,1381.4,2510.65,1379.53,2522.46,1377.66Zm-74.63,103.87c-29.23-12.44-48.51-29.23-48.51-41.67s19.28-29.23,48.51-41.67c6.84-3.11,14.93-5.6,23-8.09a507.68,507.68,0,0,0,18.66,50.38,507.68,507.68,0,0,0-18.66,50.38C2462.76,1487.12,2454.67,1484.64,2447.83,1481.53ZM2492,1599.69c-11.2-6.22-16.17-31.09-12.44-62.81.62-8.09,2.49-16.17,4.35-24.26,16.17,3.74,34.21,6.84,52.87,9.33a490.78,490.78,0,0,0,34.2,41.67c-26.74,24.88-52.24,39.18-69.65,39.18C2497.59,1602.18,2494.48,1601.56,2492,1599.69Zm196.53-62.81c3.73,31.72-.62,56-11.82,62.81a20.7,20.7,0,0,1-9.33,1.87c-17.41,0-42.91-13.68-69.65-38.56a395.16,395.16,0,0,0,34.2-41.67,332.19,332.19,0,0,0,52.87-9.33A186.09,186.09,0,0,1,2688.52,1536.88Zm32.34-55.35c-6.84,3.11-14.93,5.59-23,8.08a507.54,507.54,0,0,0-18.66-50.37,508.61,508.61,0,0,0,18.66-50.38,198.07,198.07,0,0,1,23,8.71c29.23,12.44,48.51,29.23,48.51,41.67C2768.75,1452.3,2750.09,1469.09,2720.86,1481.53Z"/><circle class="cls-10" cx="2584.03" cy="1439.24" r="37.94"/><image class="cls-11" width="200" height="200" transform="translate(1261.14) scale(1.9)" xlink:href="../../../../Landing%20Pages/JSlogo.png"/><g id="g10"><g id="g12"><path id="path14" class="cls-12" d="M588.3,373.32,428.08,429.68l25.34,210L588.53,713.9l135.82-75.25,25.34-209.9Z"/><path id="path16" class="cls-13" d="M733.6,440.87,587.91,391.2v305L710,628.62Z"/><path id="path18" class="cls-14" d="M446,441.73l21.69,187.74L587.91,696.1v-305L446,441.73Z"/><path id="path20" class="cls-15" d="M621.73,542.87l-33.51-70-29.46,70Zm12.75,29.39H545.7l-19.9,49.67-36.93.7,99-220.39L690.45,622.63H656.17l-21.69-50.37Z"/><path id="path22" class="cls-12" d="M588,402.24l.23,70.66L621.65,543H588l-.08,29.31,46.57.07,21.77,50.38,35.37.62Z"/></g></g><rect class="cls-16" x="2116.19" y="481.9" width="291.12" height="15.01" transform="translate(707.02 2203.42) rotate(-60)"/><rect class="cls-16" x="2179.64" y="592.05" width="291.13" height="15.01"/><rect class="cls-16" x="2254.44" y="552.15" width="15.01" height="168.07" transform="translate(580 2276.97) rotate(-60)"/><rect class="cls-16" x="2380.9" y="333" width="15.01" height="168.07" transform="translate(833.02 2276.91) rotate(-60)"/><rect class="cls-16" x="2177.94" y="408.89" width="168.07" height="15.01" transform="translate(94.86 1186.8) rotate(-30)"/><rect class="cls-16" x="2380.83" y="344.53" width="15.01" height="291.12" transform="translate(74.94 1259.86) rotate(-30)"/><rect class="cls-16" x="2191.15" y="442.49" width="15.01" height="168.07"/><rect class="cls-16" x="2444.26" y="442.49" width="15.01" height="168.07"/><rect class="cls-16" x="2315.08" y="629.15" width="146.06" height="13.01" transform="translate(2.13 1279.25) rotate(-30)"/><path class="cls-16" d="M2479.27,615.06a31.83,31.83,0,1,1-11.5-43.52,32.4,32.4,0,0,1,11.5,43.52"/><path class="cls-16" d="M2226.16,469a31.83,31.83,0,1,1-11.5-43.52,32.38,32.38,0,0,1,11.5,43.52"/><path class="cls-16" d="M2171.14,615.06a31.83,31.83,0,1,1,43.52,11.51c-15.51,9-35,4-43.52-11.51"/><path class="cls-16" d="M2424.25,469a31.83,31.83,0,1,1,43.52,11.5c-15.51,9-34.52,3.51-43.52-11.5"/><path class="cls-16" d="M2325.2,704.1a31.52,31.52,0,1,1,31.52-31.51,31.39,31.39,0,0,1-31.52,31.51"/><path class="cls-16" d="M2325.2,412a31.51,31.51,0,1,1,31.52-31.51A31.38,31.38,0,0,1,2325.2,412"/><path class="cls-17" d="M258,1600.29A10,10,0,0,1,253,1599l-15.73-9.31c-2.35-1.32-1.2-1.78-.43-2.05a31.85,31.85,0,0,0,7.12-3.24,1.2,1.2,0,0,1,1.17.08l12.08,7.17a1.59,1.59,0,0,0,1.47,0l47.13-27.2a1.51,1.51,0,0,0,.72-1.28v-54.38a1.52,1.52,0,0,0-.73-1.3l-47.12-27.18a1.45,1.45,0,0,0-1.45,0l-47.1,27.18a1.5,1.5,0,0,0-.75,1.28v54.39a1.44,1.44,0,0,0,.74,1.26l12.9,7.46c7,3.5,11.29-.63,11.29-4.78v-53.68a1.34,1.34,0,0,1,1.37-1.35h6a1.35,1.35,0,0,1,1.36,1.35v53.7c0,9.35-5.1,14.72-14,14.72-2.72,0-4.87,0-10.86-3l-12.37-7.13a10,10,0,0,1-4.94-8.6v-54.39a9.9,9.9,0,0,1,4.94-8.58L253,1472.94a10.32,10.32,0,0,1,9.91,0L310,1500.17a10,10,0,0,1,4.94,8.59v54.38a10,10,0,0,1-4.94,8.59L262.91,1599a9.94,9.94,0,0,1-5,1.32"/><path class="cls-17" d="M272.51,1562.82c-20.63,0-24.95-9.47-24.95-17.41a1.35,1.35,0,0,1,1.36-1.35H255a1.36,1.36,0,0,1,1.35,1.15c.92,6.2,3.65,9.33,16.12,9.33,9.94,0,14.16-2.24,14.16-7.51,0-3-1.2-5.29-16.63-6.8-12.91-1.27-20.88-4.11-20.88-14.44,0-9.5,8-15.17,21.45-15.17,15.09,0,22.57,5.24,23.52,16.5a1.42,1.42,0,0,1-.37,1.05,1.39,1.39,0,0,1-1,.43h-6.12a1.36,1.36,0,0,1-1.33-1.06c-1.47-6.52-5-8.61-14.72-8.61-10.84,0-12.1,3.77-12.1,6.6,0,3.44,1.48,4.44,16.11,6.38s21.37,4.63,21.37,14.81-8.57,16.15-23.5,16.15m57.4-57.67h1.58a1.38,1.38,0,0,0,1.55-1.44c0-1.4-1-1.4-1.49-1.4h-1.62Zm-1.92-4.46h3.5c1.21,0,3.57,0,3.57,2.69a2.35,2.35,0,0,1-1.93,2.5c1.41.09,1.5,1,1.69,2.31a10.32,10.32,0,0,0,.53,2.69h-2.16c-.06-.47-.39-3.07-.39-3.21-.14-.58-.34-.86-1.06-.86h-1.78v4.08h-2Zm-4.21,5.07a7.62,7.62,0,1,0,7.58-7.6,7.62,7.62,0,0,0-7.58,7.6m16.7,0a9.09,9.09,0,1,1-9.08-9.08,9.11,9.11,0,0,1,9.08,9.08"/><path class="cls-18" d="M112,1387.49a6,6,0,0,0-3-5.24L59,1353.5a5.71,5.71,0,0,0-2.74-.79h-.52a5.82,5.82,0,0,0-2.76.79L3,1382.25a6.08,6.08,0,0,0-3,5.25l.11,77.44a3,3,0,0,0,1.5,2.6,2.83,2.83,0,0,0,3,0l29.71-17a6.08,6.08,0,0,0,3-5.24v-36.17a6,6,0,0,1,3-5.23L53,1396.61a5.94,5.94,0,0,1,3-.82,5.81,5.81,0,0,1,3,.82l12.64,7.28a6,6,0,0,1,3,5.22v36.18a6.12,6.12,0,0,0,3,5.24l29.69,17a3,3,0,0,0,3,0,3.06,3.06,0,0,0,1.49-2.61Zm235.79,40.32a1.5,1.5,0,0,1-.75,1.31L329.88,1439a1.51,1.51,0,0,1-1.51,0l-17.17-9.89a1.5,1.5,0,0,1-.75-1.31V1408a1.51,1.51,0,0,1,.74-1.31l17.16-9.91a1.48,1.48,0,0,1,1.52,0l17.16,9.91a1.51,1.51,0,0,1,.76,1.31Zm4.64-146.76a3,3,0,0,0-4.49,2.64v76.68a2.12,2.12,0,0,1-3.17,1.83L332.26,1355a6,6,0,0,0-6,0l-50,28.85a6,6,0,0,0-3,5.21v57.72a6,6,0,0,0,3,5.22l50,28.87a6.06,6.06,0,0,0,6,0l50-28.88a6.07,6.07,0,0,0,3-5.23V1302.92a6,6,0,0,0-3.1-5.27Zm166.45,126.42a6,6,0,0,0,3-5.21v-14a6,6,0,0,0-3-5.22l-49.67-28.83a6,6,0,0,0-6,0l-50,28.84a6,6,0,0,0-3,5.23V1446a6.05,6.05,0,0,0,3,5.25l49.65,28.3a6,6,0,0,0,5.93,0l30-16.69a3,3,0,0,0,0-5.25l-50.28-28.86a3,3,0,0,1-1.53-2.6v-18.1a3,3,0,0,1,1.51-2.61l15.65-9a3,3,0,0,1,3,0l15.65,9a3,3,0,0,1,1.51,2.6v14.23a3,3,0,0,0,4.53,2.61Z"/><path class="cls-19" d="M465.45,1404.77a1.2,1.2,0,0,1,1.16,0l9.59,5.54a1.16,1.16,0,0,1,.58,1v11.08a1.16,1.16,0,0,1-.58,1l-9.59,5.53a1.15,1.15,0,0,1-1.16,0l-9.58-5.53a1.15,1.15,0,0,1-.59-1v-11.08a1.14,1.14,0,0,1,.58-1Z"/><g class="cls-20"><path class="cls-21" d="M298.54,1378.32l-140-68.65-71.81,146.5,140,68.65Z"/></g><g class="cls-22"><path class="cls-23" d="M77.58,1398.63l98.9,133.84,130.78-96.63L208.37,1302Z"/></g><g class="cls-24"><path class="cls-25" d="M140.05,1353.71v126.74H248.21V1353.71Z"/></g><path class="cls-26" d="M1274,1231.84s99.16,23.37,197.52,22.35c105.49-1.1,192.57-21.52,192.57-21.52"/><path class="cls-27" d="M1601.4,1239.64s-28.33-42.88-33.16-42c-4.59.84-16.16,50.64-16.16,50.64Z"/><path class="cls-27" d="M1387.81,1244.7s-14.25-49.38-19.13-50c-4.63-.56-30.53,43.51-30.53,43.51Z"/></g></g></svg>