<svg xmlns="http://www.w3.org/2000/svg" viewBox="0 0 4922.31 3743.83"><defs><style>.cls-1,.cls-13,.cls-7{fill:#13c6ff;}.cls-1,.cls-10,.cls-11,.cls-12,.cls-13,.cls-14,.cls-15,.cls-2,.cls-3,.cls-4,.cls-5,.cls-6,.cls-7,.cls-8,.cls-9{stroke:#091133;stroke-linecap:round;stroke-linejoin:round;fill-rule:evenodd;}.cls-1,.cls-2{stroke-width:20px;}.cls-2,.cls-4{fill:#fff;}.cls-15,.cls-3,.cls-5,.cls-6{fill:#091133;}.cls-3,.cls-6,.cls-7{fill-opacity:0;}.cls-3,.cls-4{stroke-width:15px;}.cls-5{stroke-width:10px;}.cls-10,.cls-11,.cls-12,.cls-13,.cls-14,.cls-6,.cls-8,.cls-9{stroke-width:24px;}.cls-7{stroke-width:25px;}.cls-10,.cls-8{fill:#cef1ff;}.cls-8{fill-opacity:0;}.cls-9{fill:#ff4c13;}.cls-11{fill:#b775d6;}.cls-12{fill:#c6d4ff;}.cls-14{fill:#18cfdb;}.cls-15{stroke-width:6px;}</style></defs><g id="Layer_2" data-name="Layer 2"><g id="Layer_1-2" data-name="Layer 1"><path class="cls-1" d="M4832.94,2693.13c20.73,26.16,94.62,129.12,76.55,59.61-10.27-39.48-85.77-222.91-175.09-312.18-220.78-220.69-532.93-256.07-532.93-256.07s-4.52-12,25.63-65c16.34-28.68-148.28,65-148.28,65s-81.31-68.19-102.52-82.38c-19.53-13.06-96.15-55.68-90.61-41.19,14,36.69,84.65,116.17,65.9,124.48-25.14,11.16-175.53,1-324.27,77C3364,2397,3364.1,2654.29,3352.48,2714.71c-9.8,51,56.62-2.09,56.62-2.09s7.2,98.42-41.27,141.56c-53.17,47.33-232.26-203-293.72-238.12s-99.2-.49-80.75,56.69c15.36,47.61,231.5,392.33,364.6,397.14s212.95-96.2,226.18-90.47c15.47,6.68-25.21,107.39-30.35,285.11-5.42,187.53,137.23,277.42,142.77,330.13,5.51,52.33-52.4,60.61-15,107.77,42.39,53.39,226,26.17,244.84,9.19,11.75-10.57-9.07-71.08,19.76-68.68,25.62,2.15,149.3-1.18,178.75-1,37.67.21,9.92,38.71,15.28,62.48,6.28,27.94,224.27,47.65,269.59-1.16s-43-69.72-14-113.88c58-88.14,115.51-204.17,119.61-314.1s-51-293-7-293.85c44.22-.84,56.57,113.58,77.22,220.29,16.31,84.34-39.08,214.77-27.53,326.32,3.85,37.12,74.79,40.88,105.22,10.61s127.3-216.11,146.42-413.6S4824.5,2682.49,4832.94,2693.13Z"/><path class="cls-2" d="M4406.78,2577.64c4.55-210.5-126-248.82-300.18-241-22.24,1-15.46,7.8,8.42,39.92,28,37.64-90.25-26.57-109.39-26.93-15.12-.27-79.75,65.82-69.09,39.63,12.87-31.64,29.92-61.41,5.91-58.79-131.49,14.33-272.8,17.15-265.37,244,7.93,241.84,135.31,244.19,368.79,242.8C4286.85,2815.75,4401.54,2820.49,4406.78,2577.64Z"/><path class="cls-3" d="M4215.86,2655.48s-116.08,23.28-230.27,18.25c-122.47-5.39-222.8-32.5-222.8-32.5"/><path class="cls-4" d="M3835.29,2651.77s34.58-48.69,40.16-47.47c5.29,1.16,16.79,59.43,16.79,59.43Z"/><path class="cls-4" d="M4083.15,2666s18.49-56.8,24.17-57.3c5.39-.47,33.76,51.73,33.76,51.73Z"/><path class="cls-5" d="M4212.11,2481.15a14.9,14.9,0,1,0-14.9,14.86A14.89,14.89,0,0,0,4212.11,2481.15Z"/><path class="cls-5" d="M3796.94,2477.15a14.9,14.9,0,1,0-14.89,14.85A14.88,14.88,0,0,0,3796.94,2477.15Z"/><path class="cls-5" d="M4017.62,2530.49c0-9.25-12.64-12-28.22-12s-27.76,2.56-27.76,11.95,12.18,12,27.76,12S4017.67,2539.75,4017.62,2530.49Z"/><path class="cls-1" d="M3565.31,2324.8S3461.5,2203.32,3399,2282.91c-76.53,97.4,58.64,157.65,58.64,157.65"/><path class="cls-1" d="M4539.82,2324.27s103.8-121.47,166.34-41.89c76.53,97.41-58.65,157.67-58.65,157.67"/><path class="cls-2" d="M3533.24,2354.27l-44.79,54.16s-87-44.08-53.13-86.75C3470.17,2277.76,3533.24,2354.27,3533.24,2354.27Z"/><path class="cls-2" d="M4571.9,2353.75l44.78,54.17s87-44.08,53.13-86.76C4635,2277.25,4571.9,2353.75,4571.9,2353.75Z"/><path class="cls-2" d="M4359.34,2237.11s140.6-320.72,176.63-296.31c101,68.43-50,352.09-50,352.09s-44.38,1-76-12.92S4359.34,2237.11,4359.34,2237.11Z"/><path class="cls-2" d="M3737.61,2242.92S3597,1922.2,3561,1946.61c-101,68.43,50,352.09,50,352.09s39.39,3.32,71.06-10.62S3737.61,2242.92,3737.61,2242.92Z"/><path class="cls-1" d="M3599,2908s-5.89,41.53-8.46,59.78-7.81,57.47-7.81,57.47"/><path class="cls-2" d="M4307,3024.37c49.58,54.4,102.52,259.23,47.68,339.36s-152.74,171.93-380.69,146.78c-228.87-25.24-264.54-125.61-291.19-183.63-13.62-29.65-31.3-230.51,63.22-326,90.58-91.48,292.3-78.35,335-75.71C4168.24,2930.62,4257.37,2970,4307,3024.37Z"/><path class="cls-6" d="M2807.5,806.42,2088.42,333.27"/><path class="cls-7" d="M1849.59,245.24l2007.9,65.22"/><path class="cls-8" d="M2814.47,811.07,3809,339.19,3567.32,1648.84,2211.76,2170.76Z"/><path class="cls-6" d="M2813.31,805.26l748.74,863.63"/><path class="cls-6" d="M2807.5,812.23l-900.23,273.28"/><path class="cls-9" d="M2656.19,804c0-82.83,71.72-150,160.18-150s160.19,67.16,160.19,150-71.72,150-160.19,150S2656.19,886.84,2656.19,804Z"/><path class="cls-10" d="M717.14,569.89c0-82.84,71.72-150,160.18-150s160.19,67.16,160.19,150-71.72,150-160.19,150S717.14,652.73,717.14,569.89Z"/><path class="cls-11" d="M1593.59,247.73C1593.59,117.54,1706.3,12,1845.33,12s251.74,105.54,251.74,235.73-112.7,235.73-251.74,235.73S1593.59,377.92,1593.59,247.73Z"/><path class="cls-12" d="M877.32,1970.74c0-82.84,71.72-150,160.19-150s160.18,67.15,160.18,150-71.72,150-160.18,150S877.32,2053.58,877.32,1970.74Z"/><path class="cls-13" d="M3401.23,1646.11c0-82.84,71.72-150,160.19-150s160.18,67.16,160.18,150-71.72,150-160.18,150S3401.23,1729,3401.23,1646.11Z"/><path class="cls-14" d="M1977,2150c0-130.18,112.71-235.73,251.74-235.73S2480.49,2019.8,2480.49,2150s-112.71,235.73-251.74,235.73S1977,2280.17,1977,2150Z"/><path class="cls-13" d="M1143.25,1218.09c0-204.55,177.08-370.37,395.52-370.37,181.36,0,334.2,114.28,380.86,270.14a348.63,348.63,0,0,1,14.66,100.23c0,204.54-177.08,370.36-395.52,370.36S1143.25,1422.63,1143.25,1218.09Z"/><path class="cls-9" d="M12,1293.49c0-130.19,112.71-235.72,251.74-235.72s251.74,105.53,251.74,235.72-112.71,235.73-251.74,235.73S12,1423.69,12,1293.49Z"/><path class="cls-12" d="M3576.84,320.93c0-130.19,112.7-235.73,251.73-235.73s251.74,105.54,251.74,235.73S3967.6,556.66,3828.57,556.66,3576.84,451.12,3576.84,320.93Z"/><path class="cls-6" d="M1027.21,498.15l574.84-177.22"/><path class="cls-6" d="M397.48,1080.74l370.82-391"/><path class="cls-6" d="M518.47,1270.81l607.39-40.74"/><path class="cls-6" d="M2051.66,1968.32,1770,1529.22"/><path class="cls-6" d="M1919.7,473.67,2209,1909.14"/><path class="cls-6" d="M1968,2136.32l-787.07-97.8"/><path class="cls-6" d="M889.61,1895.4l-534-373.25"/><path class="cls-15" d="M1547.15,1002.3c-3.42-.16-7-.16-10.61,0-109.79,5.35-101.41,168.87-101.41,168.87l47.43.11S1468.28,1050,1537,1047.52c65.71-2.41,59.59,123.62,59.59,123.62l48.18-.4S1653.2,1007.33,1547.15,1002.3Zm-135.31,169.39c-12.9,0-23.33,9-23.33,20.09v208.7c0,11.1,10.43,20.1,23.33,20.1H1666.1c12.9,0,23.36-9,23.36-20.1v-208.7c0-11.1-10.46-20.09-23.36-20.09Zm130,55.67c62.29-.2,19.81,68.46,17.13,70.76-2.43,2.08,2.28,72.81-16.72,73.22-21.32.45-17.44-70-18.8-72.5C1521.71,1295.56,1479.79,1227.57,1541.87,1227.36Z"/></g></g></svg>