<svg xmlns="http://www.w3.org/2000/svg" viewBox="0 0 2000 1857.31"><defs><style>.cls-1,.cls-2{fill:#091133;fill-rule:evenodd;}.cls-2{stroke:#091133;stroke-linecap:round;stroke-linejoin:round;stroke-width:20px;}</style></defs><g id="Layer_2" data-name="Layer 2"><g id="Layer_1-2" data-name="Layer 1"><path class="cls-1" d="M1000,0C447.72,0,0,447.72,0,1000a995.74,995.74,0,0,0,108,452.34c19.82-108.19,66.23-309.59,109.14-398.64,36.17-75.07,71.25-141.79,104.57-201,22.48-39.94-92.88,53.82-72.21,20.51C378.64,665,605.21,451.11,604.12,431.22c-2.16-39.77-73-91.11-36.84-217.81,28.82-100.89,92.54,170.4,158.24,191.29,7.8,2.48,128.76,1.25,147.72,1.25,13.58,0,9.83-20.37-19.22-55-30.64-36.55,116.9,53.73,124.5,53.78,2.9,0,63.69-52.5,104.49-80.8,46.53-32.28,72.21-39,46.62-5.74C1067.49,399,1086,404.7,1093.91,404.7c1.84,0,31.87-.18,31.87-.18s134.45-.15,140-1.73c92.64-26.66,153.81-297.22,170.33-166.67,17.89,141.4-32.09,160.62-32.84,195.1-.88,40.42,316,383.55,398.12,578.47,2.12,5-8.69-.21-15.36-5.4-7.17-5.58-82.76-70.3-74.3-53.95,16,30.82,49.26,79.19,65.66,113.65,51.18,107.51,102,278.1,119.72,378.23A995.8,995.8,0,0,0,2000,1000C2000,447.72,1552.28,0,1000,0ZM478.88,1544.84c-62.08,0-76,152.16-78.29,255.66A1003.86,1003.86,0,0,0,485,1857.31a825.7,825.7,0,0,1,4.91-158C509,1548.41,522.68,1544.84,478.88,1544.84Zm1085.15,0c-47.29,0-29.85,0-21.81,182.78,2.07,47-.58,85.27-5.56,116.31q41.58-26.49,80.28-56.87C1620.52,1688.06,1616.8,1544.84,1564,1544.84Z"/><path class="cls-2" d="M749.25,899l501.5.73"/><path class="cls-1" d="M837.29,891s32.3-69,40.14-69c7.45,0,39.85,68.35,39.85,68.35Z"/><path class="cls-1" d="M1077.89,891s32.3-69,40.14-69c7.45,0,39.85,68.35,39.85,68.35Z"/></g></g></svg>