<svg xmlns="http://www.w3.org/2000/svg" viewBox="0 0 3200.37 1245.48"><defs><style>.cls-1{fill:#cef1ff;}.cls-1,.cls-2,.cls-3,.cls-4,.cls-5,.cls-6,.cls-7,.cls-8,.cls-9{fill-rule:evenodd;}.cls-2{fill:#13c6ff;}.cls-2,.cls-3,.cls-4,.cls-5,.cls-6,.cls-7,.cls-8{stroke:#091133;}.cls-2,.cls-3,.cls-4,.cls-5,.cls-6,.cls-7,.cls-8,.cls-9{stroke-linecap:round;stroke-linejoin:round;}.cls-2,.cls-4,.cls-5{stroke-width:20px;}.cls-3,.cls-4{fill:#c7c7c7;}.cls-3,.cls-9{stroke-width:19.78px;}.cls-5,.cls-8,.cls-9{fill:#fff;}.cls-6,.cls-7{fill:#091133;}.cls-6{fill-opacity:0;}.cls-6,.cls-8{stroke-width:15px;}.cls-7{stroke-width:10px;}.cls-9{stroke:#fff;}</style></defs><g id="Layer_2" data-name="Layer 2"><g id="Layer_1-2" data-name="Layer 1"><g id="Layer_1-3" data-name="Layer 1"><path class="cls-1" d="M3200.37,1100.17c0-80.26-716.42-145.32-1600.19-145.32S0,1019.91,0,1100.17s716.42,145.31,1600.18,145.31c161.52,0,317.43-2.17,464.41-6.21C2721.87,1221.19,3200.37,1165.75,3200.37,1100.17Z"/><path class="cls-2" d="M1122.13,864.5s7.22,42.2-22,67.38S878,981.74,843.12,984.23s-33.22,101.93,22.5,110.69,394.85-13.5,445.49-37.07c45.07-21,11-177,11-177"/><path class="cls-3" d="M897.5,1138.49l312.57-8.51-6.82-44.81-313,4.57Z"/><path class="cls-4" d="M212.77,756.22c-10.24.21,162.52,340.06,188.26,371.43,12.17,14.84,518.15,24.31,510.87,7.18-12.31-29-193.52-332.55-223.51-375.24C675.61,741.39,229.78,755.87,212.77,756.22Z"/><path class="cls-2" d="M2458.05,649.27s77.6-180.61,115.11-216,222.41,67.92,152.14,90.24-136.63,297.47-173.65,340.66c-28.37,33.11-263.92,50.08-263.92,50.08Z"/><path class="cls-2" d="M1836.3,189.18c45.36,10.7-70.12,23.34-22.88,38.46,52.06,16.66,434.25,3.52,603.75,186.2s183,335,183,409.35c0,8,101.83-194,120.39-232.32s285.58,58.74,177.23,104.18-67.09,356.54-223,371.75c-182.11,17.77-25.45,2-354.66,23.9-190,12.64-581.51-10.28-668.56-16.87-244.66-18.53-421.29-48.69-518.43-88.35-191.13-78-181.87-364.57-191.41-371.7s-36.82,69-35.21,22.69c1.68-48.79,16.55-219.9,68-297.84,86.22-130.8,277.72-149.67,276.67-166.08s-64.35-58.57-20.86-44.8c43,13.63,67.28,38.13,76,34.41s32.37-56.26,75.87-79c33.94-17.75-33.23,75.63-17.68,82.11C1377.46,170.7,1545.26,120.58,1836.3,189.18Z"/><path class="cls-2" d="M1428.43,931.39s18.28,29.38-11,42.94-311.08,56.55-346.73,68.07c-39.35,12.73-27.42,69.24,39.66,78.25s344,15.13,430.57-26.5,123-204.29,112-276.94"/><path class="cls-5" d="M1156.07,247.15S1044-8.39,1015.33,11.06c-80.49,54.51,39.8,280.54,39.8,280.54s31.39,2.64,56.62-8.47S1156.07,247.15,1156.07,247.15Z"/><path class="cls-5" d="M1435.54,266.79S1556.62-9.37,1587.63,11.64c87,58.92-43,303.18-43,303.18s-38.23.88-65.5-11.13S1435.54,266.79,1435.54,266.79Z"/><path class="cls-5" d="M1521.93,532.55c3-194.39-84.1-229.77-200.31-222.58-14.85.92-10.32,7.19,5.62,36.86,18.66,34.76-60.23-24.53-73-24.86-10.1-.26-53.23,60.77-46.11,36.58,8.6-29.22,20-56.71,3.95-54.29-87.74,13.24-197.68,20.59-192.71,230,5.29,223.33,105.91,220.76,261.73,219.47C1441.9,752.43,1518.43,756.8,1521.93,532.55Z"/><path class="cls-6" d="M1384.54,616.23s-78.07,29.55-155.78,28.79c-83.33-.8-152.33-25.7-152.33-25.7"/><path class="cls-7" d="M1100.18,481.92a15.92,15.92,0,1,0-15.92,15.88A15.9,15.9,0,0,0,1100.18,481.92Z"/><path class="cls-7" d="M1399.45,479.88a15.93,15.93,0,1,0-15.93,15.88A15.9,15.9,0,0,0,1399.45,479.88Z"/><path class="cls-8" d="M1101.25,625.53s26.61-35.29,30.71-34.27c3.88,1,11.16,44.31,11.16,44.31Z"/><path class="cls-8" d="M1306.34,635.35s6.3-43.74,10.39-44.82c3.88-1,31.14,33.45,31.14,33.45Z"/><path class="cls-7" d="M1245.43,541.06c0-9.89-13.5-12.81-30.15-12.81S1185.62,531,1185.62,541s13,12.84,29.66,12.84S1245.5,551,1245.43,541.06Z"/><path class="cls-9" d="M506.36,953.78c-2.65-18,6.12-32.18,19.6-31.65s26.55,15.58,29.2,33.59-6.12,32.19-19.6,31.65S509,971.8,506.36,953.78Z"/><path class="cls-5" d="M1650.47,1074.12s4.58-48.1,67.8-96c56.51-42.87,127.66-44.06,213.54-47.45,106.35-4.2,187.81,11.4,276.49,33.57,90.35,22.59,149.08,124.24,149.08,124.24s-179.24,5.65-353.53,6.78S1650.47,1074.12,1650.47,1074.12Z"/><path class="cls-2" d="M1548.93,363.57s103.91-75.4,137.81-1.48c41.49,90.47-75.44,112.14-75.44,112.14"/><path class="cls-5" d="M1568.46,392.61l24.8,50.73s76.24-18.09,57.8-57.79C1632.1,344.7,1568.46,392.61,1568.46,392.61Z"/><path class="cls-2" d="M1016.43,332.63s-105.36-73.34-137.81,1.23c-39.7,91.26,77.63,110.63,77.63,110.63"/><path class="cls-5" d="M997.5,362.05l-23.83,51.21s-76.56-16.6-58.92-56.65C932.92,315.39,997.5,362.05,997.5,362.05Z"/></g></g></g></svg>