<svg id="wave1" viewBox="0 0 1061 900">
  <defs>
    <style>#wave1{width:27px;} #wave1 path,#wave1 circle,#wave1 ellipse{stroke: black
      !important;}#wave1
      circle,#wave1 ellipse{fill:black !important;}</style>
  </defs>
  <g id="Layer_1-2" data-name="Layer 1">
    <path
      d="M 130 251  q -70 80 -100 174  q 0 20 41 -44  q 5 -10 12 232  q -5 5 64 169  q -5 10 53 6  q 20 -3 -12 -127  q 0 -3 0 -39  q 0 -3 24 -94  q 12 -20 24 4  q 0 0 -15 142  q -2 10 55 128  q 2 3 6 21  q 2 3 -13 18  q -2 3 6 23  q -2 20 121 5  q 2 -3 5 -10  q 2 -3 -1 -16  q 2 -3 6 -7  q -2 -10 80 -1  q -2 -5 9 9  q 2 0 -1 14  q 3 10 3 10  q 100 16 128 -15  q 3 3 2 -11  q 3 3 -14 -14  q 0 0 0 -16  q 20 -20 60 -151  q 5 -5 -12 -130  q 0 0 5 8  q 0 0 -1 -17  q 0 0 -1 -17  q 0 0 -3 -22  q 0 0 5 35  q 0 0 16 9  q 0 0 22 16  q 0 0 22 11  q 0 0 18 3  q 0 0 19 2  q 0 0 20 -3  q 0 0 23 -8  q 0 0 14 -10  q 0 0 9 -7  q 0 0 16 -14  q 0 0 17 -17  q 0 0 25 -31  q 0 0 27 -37  q 0 0 24 -37  q 0 0 12 -34  q 0 0 -2 -15  q 0 0 -10 -8  q 0 0 -12 -3  q 0 0 -14 3  q 0 0 -15 13  q 0 0 -14 16  q 0 0 -15 16  q 0 0 -15 19  q 0 0 -20 18  q 0 0 -20 16  q 0 0 -21 16  q 0 0 -21 4  q 0 0 -10 -5  q 0 0 -5 -14  q 0 0 -5 -13  q 0 0 -2 -14  q 0 0 -1 -11  q 0 0 2 -10  q 0 0 6 4  q 0 0 7 3  q 0 0 9 3  q 0 0 3 1  q 0 0 1 -9  q 0 0 -4 -22  q 0 0 -3 -21  q 0 0 -5 -23  q 0 0 -8 -23  q 0 0 -7 -21  q 0 0 -12 -22 "
      stroke="blue" stroke-width="30" fill="none"></path>
    <path
      d="M 212 205  q -3 -3 -15 -13  q -3 -3 -11 -8  q -3 -3 -17 -10  q -3 -3 -16 -2  q -3 -3 -20 9  q -3 -3 -9 14  q -3 -3 -4 20  q 1 3 6 16  q 1 3 8 13  q 1 3 8 5  q 1 3 8 6  q 1 3 11 7 "
      stroke="blue" stroke-width="30" fill="none"></path>
    <path
      d="M 734 261  q 0 0 8 -5  q 0 0 6 -5  q 0 0 8 -4  q 0 0 9 -8  q 0 0 5 -8  q 0 0 4 -8  q 0 0 2 -9  q 0 0 -1 -10  q 0 0 -4 -11  q 0 0 -9 -8  q 0 0 -10 -10  q 0 0 -14 -5  q 0 0 -11 1  q 0 0 -13 5  q 0 0 -11 7  q 0 0 -5 3  q 0 0 -5 4  q 0 0 -5 4  q 0 0 -7 6  q 0 0 -2 0 "
      stroke="blue" stroke-width="30" fill="none"></path>
    <path
      d="M 236 189  q 0 0 8 1  q 0 0 11 1  q 0 0 15 -8  q 0 0 15 -6  q 0 0 8 -7  q 0 0 6 -6  q 0 0 -22 -44  q 0 0 -20 -38  q 0 0 -19 -36  q 0 0 -24 -24  q 0 0 -13 12  q 0 0 -7 20  q 0 0 1 22  q 0 0 2 18  q 0 0 7 24  q 0 0 8 20  q 0 0 9 20  q 0 0 9 20  q 0 0 -1 -3  q 0 0 3 10  q 0 0 12 5 "
      stroke="blue" stroke-width="30" fill="none"></path>
    <path
      d="M 595 163  q 0 0 2 5  q 0 0 7 5  q 0 0 11 5  q 0 0 10 3  q 0 0 9 2  q 0 0 11 1  q 0 0 10 2  q 0 0 5 2  q 0 0 15 -28  q 0 0 12 -30  q 0 0 10 -32  q 0 0 5 -30  q 0 0 -5 -28  q 0 0 -10 -17  q 0 0 -8 -3  q 0 0 -11 8  q 0 0 -10 12  q 0 0 -8 13  q 0 0 -12 22  q 0 0 -8 19  q 0 0 -13 27  q 0 0 -14 26  q 0 0 -6 10  q 0 0 0 7  q 0 0 6 5 "
      stroke="blue" stroke-width="30" fill="none"></path>
    <path
      d="M 300 153  q 0 0 21 -5  q 0 0 24 -6  q 0 0 18 -2  q 0 0 16 -2  q 0 0 4 -1  q 0 0 -2 -12  q 0 0 -4 -8  q 0 0 -6 -9  q 0 0 -2 -4  q 0 0 11 2  q 0 0 22 12  q 0 0 20 6  q 0 0 15 13  q 0 0 24 -15  q 0 0 20 -14  q 0 0 19 -12  q 0 0 19 -11  q 0 0 15 -7  q 0 0 -9 17  q 0 0 -8 12  q 0 0 -6 8  q 0 0 -6 12  q 0 0 -1 9  q 0 0 17 2  q 0 0 19 2  q 0 0 16 2  q 0 0 14 3  q 0 0 26 10 "
      stroke="blue" stroke-width="30" fill="none"></path>
    <path
      d="M 417 211  q 0 0 -19 -1  q 0 0 -10 0  q 0 0 -14 1  q 0 0 -12 1  q 0 0 -9 3  q 0 0 -14 3  q 0 0 -13 5  q 0 0 -13 7  q 0 0 -12 9  q 0 0 -8 12  q 0 0 -6 7  q 0 0 -6 15  q 0 0 -4 19  q 0 0 -1 16  q 0 0 0 16  q 0 0 1 14  q 0 0 1 15  q 0 0 1 17  q 0 0 5 15  q 0 0 6 14  q 0 0 6 11  q 0 0 13 11  q 0 0 14 8  q 0 0 13 4  q 0 0 15 4  q 0 0 18 3  q 0 0 22 -1  q 0 0 16 0  q 0 0 17 2  q 0 0 17 0  q 0 0 22 -2  q 0 0 23 1  q 0 0 21 0  q 0 0 15 -1  q 0 0 20 -3  q 0 0 20 -5  q 0 0 16 -5  q 0 0 12 -9  q 0 0 16 -15  q 0 0 9 -21  q 0 0 3 -17  q 0 0 1 -17  q 0 0 1 -13  q 0 0 1 -15  q 0 0 -1 -14  q 0 0 -1 -19  q 0 0 -5 -13  q 0 0 -6 -15  q 0 0 -8 -13  q 0 0 -10 -9  q 0 0 -13 -9  q 0 0 -15 -7  q 0 0 -13 -5  q 0 0 -18 -3  q 0 0 -13 -1  q 0 0 -13 -1  q 0 0 -10 0  q 0 0 -8 -1  q 0 0 -4 2  q 0 0 1 11  q 0 0 5 6  q 0 0 2 9  q 0 0 -10 -5  q 0 0 -11 -10  q 0 0 -8 -5  q 0 0 -17 4  q 0 0 -16 2  q 0 0 -18 6  q 0 0 -12 3  q 0 0 7 -10  q 0 0 6 -10  q 0 0 -5 -2 "
      stroke="blue" stroke-width="30" fill="none"></path>
    <path
      d="M 338 380  q 0 0 25 4  q 0 0 28 5  q 0 0 32 5  q 0 0 25 -2  q 0 0 41 -1  q 0 0 33 -4  q 0 0 35 -6 "
      stroke="blue" stroke-width="30" fill="none"></path>
    <path d="M 372 383  q 0 0 20 -22  q 0 0 10 27 " stroke="blue" stroke-width="30" fill="none"></path>
    <path d="M 494 394  q 0 0 9 -34  q 0 0 21 30 " stroke="blue" stroke-width="30" fill="none"></path>
    <path
      d="M 290 681  q 0 0 0 -15  q 0 0 1 -29  q 0 0 4 -24  q 0 0 7 -27  q 0 0 8 -21  q 0 0 13 -23  q 0 0 15 -16  q 0 0 20 -12  q 0 0 23 -11  q 0 0 23 -7  q 0 0 31 -4  q 0 0 22 -2  q 0 0 29 6  q 0 0 30 6  q 0 0 22 11  q 0 0 15 9  q 0 0 14 10  q 0 0 12 16  q 0 0 8 20  q 0 0 11 27  q 0 0 4 27  q 0 0 4 38  q 0 0 -2 27  q 0 0 -8 14  q 0 0 -8 9  q 0 0 -10 14  q 0 0 -11 11  q 0 0 -22 14  q 0 0 -24 9  q 0 0 -24 8  q 0 0 -26 3  q 0 0 -28 3  q 0 0 -29 -4  q 0 0 -24 -4  q 0 0 -22 -8  q 0 0 -20 -7  q 0 0 -18 -11  q 0 0 -14 -12  q 0 0 -10 -16  q 0 0 -12 -21  q 0 0 -4 -15 "
      stroke="blue" stroke-width="30" fill="none"></path>
    <circle cx="349" cy="301" r="21" stroke="blue" stroke-width="3" fill="blue"></circle>
    <circle cx="546" cy="301" r="21" stroke="blue" stroke-width="3" fill="blue"></circle>
    <ellipse cx="445" cy="328" rx="30" ry="20" style="fill: blue; stroke: blue; stroke-width: 1;"></ellipse>
  </g>
</svg>