<svg xmlns="http://www.w3.org/2000/svg" viewBox="0 0 192 192">
<defs />
<g id="Layer 1" data-name="Layer 1">
<path d="M180.322+53.3628C178.298+45.7408+172.335+39.7388+164.761+37.7018C151.037+33.9998+96.0003+33.9998+96.0003+33.9998C96.0003+33.9998+40.9633+33.9998+27.2383+37.7018C19.6653+39.7388+13.7013+45.7408+11.6773+53.3628C8.00029+67.1768+8.00029+95.9998+8.00029+95.9998C8.00029+95.9998+8.00029+124.822+11.6773+138.638C13.7013+146.259+19.6653+152.261+27.2383+154.299C40.9633+158+96.0003+158+96.0003+158C96.0003+158+151.037+158+164.761+154.299C172.335+152.261+178.298+146.259+180.322+138.638C184+124.822+184+95.9998+184+95.9998C184+95.9998+184+67.1768+180.322+53.3628" opacity="1" fill="#ff0000"/>
<path d="M78+122.169L124+96.0009L78+69.8309L78+122.169Z" opacity="1" fill="#ffffff"/>
</g>
</svg>
