<svg xmlns="http://www.w3.org/2000/svg" viewBox="-10 -6 64 64">
    <path fill-rule="evenodd" fill="#FFF" d="M21.968-.014A2.001 2.001 0 0 0 20 2.014v4.375c-2.315.835-4 3.038-4 5.625 0 .993.272 1.917.707 2.746L8.59 32.014H1.1c-.204 0-1.1.896-1.1 2s.896 2 1.1 2h5.607l-5.607 10v2l2 2 2-2v-1.551l15-28.551c1.227.056 1.558.102 1.9.102.34 0 .67-.046.996-.102l7.41 14.102H24v-2a2.001 2.001 0 0 0-1.973-2.028h-.059A2.001 2.001 0 0 0 20 30.014v2h-2.406l-2.106 4H20v2a2 2 0 0 0 4 .056v-2.056h8.508L37.1 46.463v1.551l2 2 2-2v-2L27.293 14.76c.435-.829.707-1.753.707-2.746 0-2.587-1.685-4.79-4-5.625V2.014a2.001 2.001 0 0 0-1.973-2.028h-.059zm-.082 10.051c.077.005.155.005.231 0 1.067.062 1.883.89 1.883 1.977 0 1.128-.872 2-2 2-1.128 0-2-.872-2-2 0-1.088.818-1.917 1.886-1.977zM39.41 32.014l1.883 4H43.1c2.004 0 2-.896 2-2s.004-2-2-2h-3.69z"/>
</svg>
