<svg xmlns="http://www.w3.org/2000/svg" viewBox="-8 -8 64 64">
    <path fill-rule="evenodd" fill="#FFF" d="m42.307 1.464 8.096 8.096c.452.452.678 1.044.678 1.636 0 .592-.226 1.183-.678 1.635l-8.096 8.096a2.312 2.312 0 0 1-3.271 0 2.312 2.312 0 0 1 0-3.271l4.147-4.147h-26.8a2.312 2.312 0 0 1-2.313-2.313 2.311 2.311 0 0 1 2.313-2.313h26.8l-4.147-4.148a2.312 2.312 0 0 1 0-3.271 2.312 2.312 0 0 1 3.271 0zm-37.49 9.732a2.312 2.312 0 0 0-2.313-2.313 2.311 2.311 0 0 0-2.313 2.313 2.312 2.312 0 1 0 4.626 0zm6.94 0a2.312 2.312 0 0 0-2.314-2.313 2.312 2.312 0 1 0 0 4.626 2.312 2.312 0 0 0 2.314-2.313zM.868 37.318a2.313 2.313 0 0 0 0 3.271l8.096 8.096a2.313 2.313 0 1 0 3.272-3.271l-4.148-4.147h26.801a2.312 2.312 0 0 0 2.313-2.313 2.312 2.312 0 0 0-2.313-2.313H8.088l4.148-4.148a2.307 2.307 0 0 0 .677-1.635 2.315 2.315 0 0 0-3.949-1.636L.868 37.318zm45.586 1.636a2.312 2.312 0 0 0 2.314 2.313 2.312 2.312 0 0 0 2.313-2.313 2.312 2.312 0 0 0-2.313-2.313 2.312 2.312 0 0 0-2.314 2.313zm-6.939 0a2.311 2.311 0 0 0 2.313 2.313 2.311 2.311 0 0 0 2.313-2.313 2.311 2.311 0 0 0-2.313-2.313 2.311 2.311 0 0 0-2.313 2.313z"/>
</svg>
