<svg xmlns="http://www.w3.org/2000/svg" width="66" height="66">
    <path fill-rule="evenodd" fill="#479ECC" d="M7.519.607h51.586a6.753 6.753 0 0 1 6.753 6.754v51.586a6.753 6.753 0 0 1-6.753 6.753H7.519a6.753 6.753 0 0 1-6.753-6.753V7.361A6.753 6.753 0 0 1 7.519.607z"/>
    <path fill-rule="evenodd" fill="#FFF" d="M32.1 7c.57 0 .245.082-.045.238L4.074 21.227v.003A2.001 2.001 0 0 0 3 23a2.001 2.001 0 0 0 1.074 1.77v.003l27.969 13.981c.293.161.622.245.057.246 1.23-.9 1.555-.082 1.845-.238l27.961-13.981.02-.008v-.003A2.001 2.001 0 0 0 63 23a2.001 2.001 0 0 0-1.074-1.77v-.003L33.957 7.246c-.293-.161-.622-.245-1.857-.246zM61 29.707l-4 2v17.848A3.98 3.98 0 0 0 55 53c0 2.21 4 8 4 8s4-5.79 4-8a3.98 3.98 0 0 0-2-3.445V29.707zm-46 4.996V43c0 5.522 8.058 10 17.1 10 10.842 0 18-4.478 18-10v-8.297L35.731 42.34a3.953 3.953 0 0 1-.508.211c-.724.298-1.469.449-3.123.449.148 0-.595-.151-1.315-.449a3.797 3.797 0 0 1-.515-.215L15 34.703z"/>
</svg>
