<svg xmlns="http://www.w3.org/2000/svg" width="33" height="33">
    <path fill-rule="evenodd" fill="#FFF" d="M29.236 3.748a1.373 1.373 0 0 0-1.132-.375l-.01.002h-7.579a1.372 1.372 0 0 0-.056 2.741h4.5l-10.26 10.26a1.371 1.371 0 0 0 1.911 1.966l.028-.027 10.26-10.261v4.445a1.371 1.371 0 0 0 2.741.056V4.916a1.37 1.37 0 0 0-.403-1.168zM14.985.594a1.373 1.373 0 0 0-1.221-.377 16.28 16.28 0 0 0-8.757 4.528c-6.412 6.412-6.412 16.85 0 23.262 6.412 6.412 16.849 6.412 23.261 0a16.275 16.275 0 0 0 4.529-8.757 1.371 1.371 0 0 0-2.702-.471c-.465 2.677-1.701 5.226-3.765 7.29a13.687 13.687 0 0 1-19.385 0 13.687 13.687 0 0 1 0-19.385c2.064-2.064 4.613-3.3 7.29-3.765a1.372 1.372 0 0 0 .75-2.325z"/>
</svg>
