<svg xmlns="http://www.w3.org/2000/svg" viewBox="-8 -8 64 64" >
    <path fill-rule="evenodd" fill="#FFF" d="M4.271.258A3.65 3.65 0 0 0 .62 3.909v1.826h47.461V3.909A3.65 3.65 0 0 0 44.43.258H4.271zM.62 11.211v21.905a3.65 3.65 0 0 0 3.651 3.651h19.58a18.07 18.07 0 0 1-1.326-6.846v-5.019a6.346 6.346 0 0 1 4.424-6.065c.267-.088 6.58-2.15 12.005-2.15 3.218 0 6.739.724 9.127 1.33v-6.806H.62zm5.476 3.651H20.7v1.825H6.096v-1.825zm32.858 5.476c-4.901 0-10.864 1.965-10.864 1.965a2.727 2.727 0 0 0-1.914 2.599v5.019c0 10.953 11.74 15.766 11.74 15.766a2.719 2.719 0 0 0 2.075 0s11.741-4.813 11.741-15.766v-5.019a2.728 2.728 0 0 0-1.915-2.599s-5.962-1.965-10.863-1.965z"/>
</svg>
