<svg xmlns="http://www.w3.org/2000/svg" viewBox="-4 -4 68 60" >
    <path fill-rule="evenodd" fill="#FFF" d="M29.1 0c.57 0 .245.082-.045.238L1.074 14.227v.003A2.001 2.001 0 0 0 0 16a2.001 2.001 0 0 0 1.074 1.77v.003l27.969 13.981c.293.161.622.245.057.246 1.23-.9 1.555-.082 1.845-.238l27.961-13.981.02-.008v-.003A2.001 2.001 0 0 0 60 16a2.001 2.001 0 0 0-1.074-1.77v-.003L30.957.246C30.664.085 30.335.001 29.1 0zM58 22.707l-4 2v17.848A3.98 3.98 0 0 0 52 46c0 2.21 4 8 4 8s4-5.79 4-8a3.98 3.98 0 0 0-2-3.445V22.707zm-46 4.996V36c0 5.522 8.058 10 17.1 10 10.842 0 18-4.478 18-10v-8.297L32.731 35.34a3.953 3.953 0 0 1-.508.211c-.724.298-1.469.449-3.123.449.148 0-.595-.151-1.315-.449a3.797 3.797 0 0 1-.515-.215L12 27.703z"/>
</svg>
