<svg xmlns="http://www.w3.org/2000/svg" viewBox="-6 -4 64 64">
    <path fill-rule="evenodd" fill="#FFF" d="M24.5.5C11.246.5.5 11.246.5 24.5s10.746 24 24 24c.71 0 1.407-.045 2.101-.105A15.885 15.885 0 0 1 24.5 40.5c0-8.822 7.178-16 16-16 2.872 0 5.562.772 7.894 2.102.06-.694.106-1.392.106-2.102 0-13.254-10.746-24-24-24zm-.012 4h.024c1.097 0 1.988.888 1.988 1.988V26.5H10.488c-1.1 0-1.988-.888-1.988-1.988v-.024c0-1.098.888-1.988 1.988-1.988H22.5V6.488c0-1.1.888-1.988 1.988-1.988zm16.012 24c-6.618 0-12 5.382-12 12s5.382 12 12 12c2.588 0 4.979-.832 6.941-2.23l3.645 3.644c.39.39.902.586 1.414.586a1.998 1.998 0 0 0 1.414-3.414l-3.645-3.645A11.92 11.92 0 0 0 52.5 40.5c0-6.618-5.382-12-12-12zm0 4c4.412 0 8 3.588 8 8s-3.588 8-8 8-8-3.588-8-8 3.588-8 8-8z"/>
</svg>
