<svg xmlns="http://www.w3.org/2000/svg" height="6rem" viewBox="0 0 3513.7 2337.27" class="col col--2 bannerYeti_src-pages-community-Community-module"><defs><style>.cls-1{fill:#13c6ff}.cls-1,.cls-2,.cls-4{stroke:#091133;stroke-width:24px}.cls-1,.cls-2,.cls-4,.cls-5,.cls-6{stroke-linecap:round;stroke-linejoin:round;fill-rule:evenodd}.cls-2{fill:#fff}.cls-4{fill:#091133}.cls-5,.cls-6{fill:#cef1ff;stroke:#000;stroke-width:20px}.cls-6{fill:#c2c5c5}</style></defs><g id="Layer_1-2" data-name="Layer 1"><path class="cls-1" d="M1767 954.51c-25.93 32.71-118.31 161.47-95.72 74.55 12.83-49.39 107.26-278.76 219-390.42 276.1-276 666.47-320.23 666.47-320.23s5.66-15.07-32.06-81.27c-20.43-35.87 185.44 81.27 185.44 81.27s101.68-85.27 128.21-103c24.43-16.34 120.25-69.62 113.32-51.51-17.53 45.88-105.87 145.27-82.41 155.68 31.43 13.94 209.14 22.55 371.71 153.71 202.85 163.71 302.16 724.2 244.51 660.71s-93.34-61.47-67.34 0c17.13 40.49 79 535.48 5.3 696.2-97.81 213.24-257.43 202.12-264.37 268-6.88 65.43 64.21 61.94 17.4 120.9-53 66.78-347.86 35.68-371.43 14.45-14.7-13.24 16.42-94.59-19.62-91.57-32 2.67-196.37 3.06-229.25-.59-42.34-4.71-27.8 54.94-34.5 84.68-7.86 34.93-289.9 50.06-346.58-11s14.51-63.2 18.82-97.24-138.56-167.8-159.73-334.55 74.56-455.46 19.49-456.52c-55.3-1-61.13 231.11-103 322.91s-205.48 200.49-272.91 223c-24.7 8.24-130.6 38.61-130.6-51.51s183.66-182.44 165.64-320.1c-32.22-245.96 64.75-559.86 54.21-546.55Z"></path><path class="cls-2" d="M2131.93 834.21C2126.25 571 2289.54 523 2507.34 532.78c27.8 1.24 19.32 9.74-10.54 49.92-35 47.07 112.86-33.23 136.81-33.67 18.9-.35 99.73 82.3 86.39 49.54-16.1-39.57-37.41-76.79-7.39-73.52 164.44 17.93 341.16 21.46 331.87 305.08-9.92 302.45-169.21 305.41-461.21 303.66-301.36-1.79-444.79 4.12-451.34-299.58Z"></path><path d="M2257.79 1010s144.1 34 287 32.48c153.29-1.6 279.84-31.27 279.84-31.27" style="fill-opacity: 0; fill: rgb(9, 17, 51); stroke-linecap: round; stroke-linejoin: round; fill-rule: evenodd; stroke: rgb(9, 17, 51); stroke-width: 24;"></path><path class="cls-2" d="M2733.6 1021.33s-41.17-62.32-48.19-61c-6.66 1.23-23.49 73.6-23.49 73.6ZM2423.21 1028.68s-20.71-71.76-27.8-72.62c-6.72-.81-44.36 63.24-44.36 63.24Z"></path><path class="cls-4" d="M2237 797.48a18.64 18.64 0 1 1 18.63 18.58 18.61 18.61 0 0 1-18.63-18.58ZM2756.2 792.47a18.63 18.63 0 1 1 18.63 18.59 18.61 18.61 0 0 1-18.63-18.59ZM2480.22 859.18c.07-11.58 15.8-15 35.29-15s34.72 3.2 34.72 14.95-15.23 15-34.72 15-35.35-3.37-35.29-14.95Z"></path><path class="cls-1" d="M3192.27 571.77s129.8-151.92 208-52.39c95.71 121.81-73.34 197.16-73.34 197.16M2133.55 493.23s-129.81-151.92-208-52.39C1829.83 562.65 1998.88 638 1998.88 638"></path><path class="cls-2" d="m3232.37 608.63 56 67.74s108.78-55.13 66.44-108.49c-43.57-54.88-122.44 40.75-122.44 40.75ZM2093.45 530.09l-56 67.73s-108.8-55.12-66.45-108.49c43.57-54.92 122.45 40.76 122.45 40.76ZM2359.25 384.22S2183.42-16.86 2138.37 13.66C2012.05 99.23 2200.86 454 2200.86 454s55.5 1.27 95.1-16.17 63.29-53.61 63.29-53.61ZM2981.07 429.8S3156.91 28.72 3202 59.23c126.33 85.58-62.48 440.32-62.48 440.32s-49.27 4.15-88.87-13.29-69.58-56.46-69.58-56.46ZM2283.36 1400.46c-57 68-117.75 324.19-54.77 424.41s175.45 215 437.26 183.56c262.87-31.57 303.85-157.09 334.46-229.66 15.64-37.06 36-288.27-72.61-407.63-104-114.4-335.74-98-384.79-94.68-100.23 6.75-202.61 55.95-259.55 124Z"></path><path class="cls-5" d="M84.89 1036.45C70.37 1059 67 1712.25 94.81 1728c24.3 13.74 1122.16-18.92 1137.83-34.09 7.72-7.47-35.24-686.48-49.77-697.67C1164.37 982 98.06 1016 84.89 1036.45Z"></path><path class="cls-6" d="M21.9 960.72c-15.7 26.6-19.33 797.52 10.73 816.06 26.28 16.21 1213.65-22.32 1230.6-40.23 3.24-3.42-1.79-126.41-10.07-276.33-4-71.87-8.69-149.94-13.6-224-11.23-169.17-23.48-317.4-30.16-323-20.01-16.8-1173.26 23.35-1187.5 47.5Z"></path><path d="M69.06 1010.59c-14.48 22.93-17.83 687.32 9.9 703.3 24.24 14 1119.67-19.24 1135.31-34.67 4.79-4.73-10-273.93-25.35-479.37-9.32-124.7-18.84-225.9-24.32-230.2-18.45-14.48-1082.4 20.12-1095.54 40.94Z" style="stroke: rgb(0, 0, 0); stroke-width: 20; fill: rgb(255, 255, 255); stroke-linecap: round; stroke-linejoin: round; fill-rule: evenodd;"></path><path class="cls-6" d="M36.66 1780.93c-30.58 4.37 285.78 524.76 315.83 543.3 26.27 16.22 1307.75-36.89 1324.7-54.8 8.34-8.81-370.55-538-425.63-527.6-64.51 12.17-1171.48 32.9-1214.9 39.1Z"></path><path class="cls-5" d="M1108.55 2223.23c5.26-.75-67.15-87-72.32-90.17-4.52-2.79-225 6.35-227.88 9.43-1.43 1.52 72.14 95.58 81.62 93.78 11.09-2.1 211.11-11.97 218.58-13.04Z"></path><path class="cls-1" d="M3088 1416.27s121.93 177.21 144.49 235.86-29.6 274.79-19.49 371.87c6.51 62.43 88.47 86.45 112.95 46 57.86-95.59 131.32-231.71 154-465.71s-63.22-470.3-63.22-470.3"></path></g></svg>
