<svg width="48" height="49" viewBox="0 0 48 49" fill="none" xmlns="http://www.w3.org/2000/svg">
    <g clip-path="url(#8obr7v1l7a)">
        <path d="M48 24.587c0 13.255-10.744 24-24 24-8.608 0-15.586-6.979-15.586-15.588 0-3.099.904-5.986 2.464-8.412 2.774 4.314 7.613 7.173 13.123 7.173 5.51 0 10.35-2.86 13.122-7.173a15.51 15.51 0 0 0 2.465-8.414C39.588 7.564 32.608.586 24 .586 37.256.586 48 11.332 48 24.587z" fill="#47C2F8"/>
        <path d="M39.588 16.173c0 3.1-.904 5.987-2.465 8.414-2.77-4.316-7.612-7.174-13.122-7.174s-10.352 2.859-13.123 7.174A15.5 15.5 0 0 0 8.414 33c0 8.61 6.978 15.587 15.587 15.587C10.746 48.586 0 37.842 0 24.587c0-13.255 10.746-24 24-24 8.61 0 15.588 6.977 15.588 15.586z" fill="#091133"/>
        <path d="M37.124 24.587C34.35 28.901 29.509 31.76 24 31.76c-5.507 0-10.35-2.86-13.122-7.173 2.771-4.316 7.613-7.174 13.122-7.174 5.51 0 10.353 2.859 13.123 7.174z" fill="#fff"/>
    </g>
    <defs>
        <clipPath id="8obr7v1l7a">
            <path fill="#fff" transform="translate(0 .586)" d="M0 0h48v48H0z"/>
        </clipPath>
    </defs>
</svg>
