<svg width="36" height="36" viewBox="0 0 36 36" fill="none" xmlns="http://www.w3.org/2000/svg">
<path fill-rule="evenodd" clip-rule="evenodd" d="M17.9983 0C8.05881 0 0 8.05881 0 18.0006C0 25.9533 5.15706 32.6993 12.3098 35.0806C13.2103 35.2453 13.5385 34.6895 13.5385 34.2121C13.5385 33.7856 13.5231 32.6529 13.5142 31.1512C8.50744 32.2386 7.45106 28.7379 7.45106 28.7379C6.63225 26.6594 5.4521 26.1058 5.4521 26.1058C3.8178 24.9886 5.57586 25.0107 5.57586 25.0107C7.38255 25.1389 8.33285 26.866 8.33285 26.866C9.93843 29.6164 12.5462 28.8219 13.5717 28.3622C13.7352 27.1986 14.1993 26.4052 14.7143 25.9555C10.7175 25.5013 6.51512 23.9565 6.51512 17.0591C6.51512 15.0944 7.2168 13.4877 8.36821 12.2291C8.18257 11.7738 7.56487 9.94395 8.54391 7.46542C8.54391 7.46542 10.0556 6.98143 13.4943 9.31078C14.9297 8.91187 16.4701 8.71187 18.0006 8.70524C19.5288 8.71187 21.0692 8.91187 22.5068 9.31078C25.9433 6.98143 27.4517 7.46542 27.4517 7.46542C28.434 9.94395 27.8163 11.7738 27.6307 12.2291C28.7843 13.4877 29.4816 15.0944 29.4816 17.0591C29.4816 23.9742 25.2726 25.4958 21.2625 25.9411C21.909 26.4969 22.4847 27.5953 22.4847 29.2749C22.4847 31.6805 22.4626 33.622 22.4626 34.2121C22.4626 34.6939 22.7863 35.2541 23.7002 35.0784C30.8474 32.6927 36 25.9511 36 18.0006C36 8.05881 27.9401 0 17.9983 0Z" fill="#00A0D1"/>
</svg>
